<?xml version="1.0" encoding="UTF-8"?>
<svg version="1.1" xmlns="http://www.w3.org/2000/svg" width="140" height="140">
<path d="M0 0 C13.95944077 9.97742081 21.3043848 22.00522702 24.4375 38.7421875 C24.90945786 43.76654396 24.90953996 48.72670863 24.828125 53.76953125 C24.82063473 55.13813943 24.81495505 56.50675858 24.81097412 57.87538147 C24.795936 61.42157311 24.75685347 64.9670753 24.7121582 68.51300049 C24.67072423 72.15375449 24.65286207 75.79462345 24.6328125 79.43554688 C24.59032901 86.53806416 24.52016852 93.64000734 24.4375 100.7421875 C18.8275 100.7421875 13.2175 100.7421875 7.4375 100.7421875 C7.42291748 98.97697754 7.40833496 97.21176758 7.39331055 95.39306641 C7.34142231 89.52562619 7.27607419 83.65841645 7.20178509 77.79122353 C7.15727735 74.23795516 7.11797985 70.68479628 7.09106445 67.13134766 C7.05980043 63.0351969 7.00502129 58.93964055 6.94921875 54.84375 C6.94282883 53.5829361 6.9364389 52.32212219 6.92985535 51.02310181 C6.72882818 38.83106745 4.18260475 29.44480971 -3.8125 20.1171875 C-12.65636254 12.47930622 -21.5991534 8.08898815 -33.45703125 8.953125 C-43.08200316 10.26281309 -52.81833889 13.80264721 -59.05078125 21.60546875 C-66.40668725 31.88183371 -68.15989272 41.70108456 -68.171875 54.16015625 C-68.1868939 55.51208946 -68.20362867 56.86400459 -68.22198486 58.21589661 C-68.26525598 61.73553413 -68.28556659 65.25492442 -68.30072021 68.77478027 C-68.32043851 72.38190086 -68.36239063 75.98875996 -68.40234375 79.59570312 C-68.4772083 86.64445531 -68.52570184 93.69311862 -68.5625 100.7421875 C-74.1725 100.7421875 -79.7825 100.7421875 -85.5625 100.7421875 C-85.63066632 92.86565655 -85.68553901 84.98929104 -85.71793652 77.11254501 C-85.73349698 73.45382349 -85.75455566 69.79531673 -85.78881836 66.13671875 C-85.82175991 62.59645775 -85.83942504 59.05640144 -85.84713173 55.51599884 C-85.85525518 53.52880595 -85.87861689 51.54169376 -85.90238953 49.55462646 C-85.90537911 33.1895167 -81.4615537 18.96058818 -69.97265625 6.9921875 C-50.82969191 -10.878716 -22.21539707 -14.31184234 0 0 Z " fill="#F2F2F2" transform="translate(100.5625,24.2578125)"/>
<path d="M0 0 C3.9290625 -0.0309375 3.9290625 -0.0309375 7.9375 -0.0625 C8.7637085 -0.071604 9.58991699 -0.08070801 10.44116211 -0.09008789 C12.29433759 -0.09723945 14.14749308 -0.0502852 16 0 C17 1 17 1 17.09765625 4.59765625 C17.09191272 6.08597255 17.07889891 7.57426296 17.0625 9.0625 C17.041875 11.681875 17.02125 14.30125 17 17 C11.39 17 5.78 17 0 17 C0 11.39 0 5.78 0 0 Z " fill="#F2F2F2" transform="translate(62,84)"/>
</svg>
